<?xml version="1.0" encoding="UTF-8"?><svg id="Layer_4" xmlns="http://www.w3.org/2000/svg" viewBox="0 0 1000 1000"><path d="m720.66,282.7c5.01,6.46,9.8,13.12,14.36,19.96,21.72,32.6,37.51,68.29,46.93,106.1,9.74,39.11,12.38,79.48,7.83,119.98-4.77,42.47-17.17,82.97-36.88,120.37-19.04,36.15-44.27,68.32-74.99,95.61-62.32,55.36-142.29,85.85-225.17,85.85-12.73,0-25.65-.73-38.41-2.16-26.77-3.01-52.66-9-77.46-17.93,201.81-43.83,359.11-212.08,383.04-425.23,3.85-34.3,4.06-68.67.76-102.54m-147.81-189.44c55.55,79.8,83.48,179.32,71.78,283.53-23.83,212.24-203.65,369.11-412.31,369.11-15.49,0-31.1-.86-46.86-2.63-25.63-2.88-50.45-8.04-74.29-15.24,65.98,94.79,170.92,161.74,294.7,175.63,15.74,1.77,31.38,2.63,46.86,2.63,208.68,0,388.49-156.86,412.31-369.11,22.72-202.37-104-387.06-292.19-443.93h0Z"/></svg>