<?xml version="1.0" encoding="UTF-8"?><svg id="Layer_1" xmlns="http://www.w3.org/2000/svg" xmlns:xlink="http://www.w3.org/1999/xlink" viewBox="0 0 1000 1000"><defs><style>.cls-1{clip-path:url(#clippath);}.cls-2{fill:none;}</style><clipPath id="clippath"><path class="cls-2" d="m166.4,166.4v667.21h667.21V166.4H166.4Zm334.31,556.99l-49.5-49.5,48.08-48.08,49.5,49.5-48.08,48.08Zm0-349.19l-49.5-49.5,48.08-48.08,49.5,49.5-48.08,48.08Z"/></clipPath></defs><path d="m674.15,236.4c23.9,0,46.36,9.31,63.26,26.2,16.9,16.9,26.2,39.36,26.2,63.26s-9.31,46.36-26.2,63.26l-348.29,348.29c-16.9,16.9-39.36,26.2-63.26,26.2s-46.36-9.31-63.26-26.2c-34.88-34.88-34.88-91.63,0-126.51l348.29-348.29c16.9-16.9,39.36-26.2,63.26-26.2m0-68c-40.3,0-80.59,15.37-111.34,46.12l-348.29,348.29c-61.49,61.49-61.49,161.19,0,222.68h0c30.75,30.75,71.04,46.12,111.34,46.12s80.59-15.37,111.34-46.12l348.29-348.29c61.49-61.49,61.49-161.19,0-222.68h0c-30.75-30.75-71.04-46.12-111.34-46.12h0Z"/><path d="m325.85,236.4c23.9,0,46.36,9.31,63.26,26.2l348.29,348.29c16.9,16.9,26.2,39.36,26.2,63.26s-9.31,46.36-26.2,63.26c-16.9,16.9-39.36,26.2-63.26,26.2s-46.36-9.31-63.26-26.2l-348.29-348.29c-34.88-34.88-34.88-91.63,0-126.51,16.9-16.9,39.36-26.2,63.26-26.2m0-68c-40.3,0-80.59,15.37-111.34,46.12h0c-61.49,61.49-61.49,161.19,0,222.68l348.29,348.29c30.75,30.75,71.04,46.12,111.34,46.12s80.59-15.37,111.34-46.12h0c61.49-61.49,61.49-161.19,0-222.68L437.19,214.51c-30.75-30.75-71.04-46.12-111.34-46.12h0Z"/><g class="cls-1"><path d="m674.15,236.4c23.9,0,46.36,9.31,63.26,26.2,16.9,16.9,26.2,39.36,26.2,63.26s-9.31,46.36-26.2,63.26l-348.29,348.29c-16.9,16.9-39.36,26.2-63.26,26.2s-46.36-9.31-63.26-26.2c-34.88-34.88-34.88-91.63,0-126.51l348.29-348.29c16.9-16.9,39.36-26.2,63.26-26.2m0-68c-40.3,0-80.59,15.37-111.34,46.12l-348.29,348.29c-61.49,61.49-61.49,161.19,0,222.68h0c30.75,30.75,71.04,46.12,111.34,46.12s80.59-15.37,111.34-46.12l348.29-348.29c61.49-61.49,61.49-161.19,0-222.68h0c-30.75-30.75-71.04-46.12-111.34-46.12h0Z"/></g></svg>